<mxfile host="app.diagrams.net" modified="2023-04-17T11:19:32.660Z" agent="Mozilla/5.0 (Macintosh; Intel Mac OS X 10.15; rv:109.0) Gecko/20100101 Firefox/111.0" version="21.1.8" etag="4cjGxRVG6yH-XsCBblAV" type="github">
  <diagram name="Page-1" id="N5M5eSd549L-LEBf8Z-1">
    <mxGraphModel>
      <root>
        <mxCell id="0" />
        <mxCell id="1" parent="0" />
      </root>
    </mxGraphModel>
  </diagram>
</mxfile>
